<svg id="svg" version="1.1" xmlns="http://www.w3.org/2000/svg" xmlns:xlink="http://www.w3.org/1999/xlink" width="400" height="400" viewBox="0, 0, 400,400"><g id="svgg"><path id="path0" d="M184.615 46.154 L 184.615 61.538 169.231 61.538 L 153.846 61.538 153.846 76.923 L 153.846 92.308 138.462 92.308 L 123.077 92.308 123.077 107.692 L 123.077 123.077 107.692 123.077 L 92.308 123.077 92.308 138.462 L 92.308 153.846 76.923 153.846 L 61.538 153.846 61.538 169.231 L 61.538 184.615 92.308 184.615 L 123.077 184.615 123.077 200.000 L 123.077 215.385 153.846 215.385 L 184.615 215.385 184.615 200.000 L 184.615 184.615 200.000 184.615 L 215.385 184.615 215.385 153.846 L 215.385 123.077 230.769 123.077 L 246.154 123.077 246.154 92.308 L 246.154 61.538 230.769 61.538 L 215.385 61.538 215.385 46.154 L 215.385 30.769 200.000 30.769 L 184.615 30.769 184.615 46.154 M307.692 200.000 L 307.692 215.385 292.308 215.385 L 276.923 215.385 276.923 246.154 L 276.923 276.923 261.538 276.923 L 246.154 276.923 246.154 307.692 L 246.154 338.462 276.923 338.462 L 307.692 338.462 307.692 323.077 L 307.692 307.692 338.462 307.692 L 369.231 307.692 369.231 261.538 L 369.231 215.385 353.846 215.385 L 338.462 215.385 338.462 200.000 L 338.462 184.615 323.077 184.615 L 307.692 184.615 307.692 200.000 M92.308 261.538 L 92.308 276.923 61.538 276.923 L 30.769 276.923 30.769 307.692 L 30.769 338.462 46.154 338.462 L 61.538 338.462 61.538 353.846 L 61.538 369.231 107.692 369.231 L 153.846 369.231 153.846 353.846 L 153.846 338.462 138.462 338.462 L 123.077 338.462 123.077 292.308 L 123.077 246.154 107.692 246.154 L 92.308 246.154 92.308 261.538 " stroke="none" fill="#6c7c84" fill-rule="evenodd"></path><path id="path1" d="M276.923 92.308 L 276.923 123.077 261.538 123.077 L 246.154 123.077 246.154 153.846 L 246.154 184.615 230.769 184.615 L 215.385 184.615 215.385 215.385 L 215.385 246.154 169.231 246.154 L 123.077 246.154 123.077 230.769 L 123.077 215.385 92.308 215.385 L 61.538 215.385 61.538 230.769 L 61.538 246.154 92.308 246.154 L 123.077 246.154 123.077 261.538 L 123.077 276.923 138.462 276.923 L 153.846 276.923 153.846 292.308 L 153.846 307.692 169.231 307.692 L 184.615 307.692 184.615 338.462 L 184.615 369.231 123.077 369.231 L 61.538 369.231 61.538 353.846 L 61.538 338.462 46.154 338.462 L 30.769 338.462 30.769 323.077 L 30.769 307.692 15.385 307.692 L 0.000 307.692 0.000 323.077 L 0.000 338.462 15.385 338.462 L 30.769 338.462 30.769 353.846 L 30.769 369.231 46.154 369.231 L 61.538 369.231 61.538 384.615 L 61.538 400.000 123.077 400.000 L 184.615 400.000 184.615 384.615 L 184.615 369.231 200.000 369.231 L 215.385 369.231 215.385 338.462 L 215.385 307.692 200.000 307.692 L 184.615 307.692 184.615 292.308 L 184.615 276.923 200.000 276.923 L 215.385 276.923 215.385 261.538 L 215.385 246.154 230.769 246.154 L 246.154 246.154 246.154 215.385 L 246.154 184.615 261.538 184.615 L 276.923 184.615 276.923 153.846 L 276.923 123.077 307.692 123.077 L 338.462 123.077 338.462 153.846 L 338.462 184.615 353.846 184.615 L 369.231 184.615 369.231 215.385 L 369.231 246.154 384.615 246.154 L 400.000 246.154 400.000 200.000 L 400.000 153.846 384.615 153.846 L 369.231 153.846 369.231 123.077 L 369.231 92.308 353.846 92.308 L 338.462 92.308 338.462 76.923 L 338.462 61.538 307.692 61.538 L 276.923 61.538 276.923 92.308 " stroke="none" fill="#2c3c44" fill-rule="evenodd"></path><path id="path2" d="M153.846 46.154 L 153.846 61.538 138.462 61.538 L 123.077 61.538 123.077 76.923 L 123.077 92.308 107.692 92.308 L 92.308 92.308 92.308 107.692 L 92.308 123.077 76.923 123.077 L 61.538 123.077 61.538 138.462 L 61.538 153.846 76.923 153.846 L 92.308 153.846 92.308 138.462 L 92.308 123.077 107.692 123.077 L 123.077 123.077 123.077 107.692 L 123.077 92.308 138.462 92.308 L 153.846 92.308 153.846 76.923 L 153.846 61.538 169.231 61.538 L 184.615 61.538 184.615 46.154 L 184.615 30.769 169.231 30.769 L 153.846 30.769 153.846 46.154 M61.538 261.538 L 61.538 276.923 76.923 276.923 L 92.308 276.923 92.308 261.538 L 92.308 246.154 76.923 246.154 L 61.538 246.154 61.538 261.538 " stroke="none" fill="#94a4ac" fill-rule="evenodd"></path><path id="path3" d="M307.692 323.077 L 307.692 338.462 276.923 338.462 L 246.154 338.462 246.154 353.846 L 246.154 369.231 292.308 369.231 L 338.462 369.231 338.462 353.846 L 338.462 338.462 353.846 338.462 L 369.231 338.462 369.231 323.077 L 369.231 307.692 338.462 307.692 L 307.692 307.692 307.692 323.077 " stroke="none" fill="#5c6c74" fill-rule="evenodd"></path><path id="path4" d="M123.077 15.385 L 123.077 30.769 107.692 30.769 L 92.308 30.769 92.308 46.154 L 92.308 61.538 76.923 61.538 L 61.538 61.538 61.538 92.308 L 61.538 123.077 46.154 123.077 L 30.769 123.077 30.769 184.615 L 30.769 246.154 15.385 246.154 L 0.000 246.154 0.000 276.923 L 0.000 307.692 15.385 307.692 L 30.769 307.692 30.769 292.308 L 30.769 276.923 46.154 276.923 L 61.538 276.923 61.538 246.154 L 61.538 215.385 92.308 215.385 L 123.077 215.385 123.077 230.769 L 123.077 246.154 169.231 246.154 L 215.385 246.154 215.385 261.538 L 215.385 276.923 200.000 276.923 L 184.615 276.923 184.615 292.308 L 184.615 307.692 169.231 307.692 L 153.846 307.692 153.846 292.308 L 153.846 276.923 138.462 276.923 L 123.077 276.923 123.077 307.692 L 123.077 338.462 138.462 338.462 L 153.846 338.462 153.846 353.846 L 153.846 369.231 169.231 369.231 L 184.615 369.231 184.615 384.615 L 184.615 400.000 276.923 400.000 L 369.231 400.000 369.231 384.615 L 369.231 369.231 384.615 369.231 L 400.000 369.231 400.000 307.692 L 400.000 246.154 384.615 246.154 L 369.231 246.154 369.231 292.308 L 369.231 338.462 353.846 338.462 L 338.462 338.462 338.462 353.846 L 338.462 369.231 292.308 369.231 L 246.154 369.231 246.154 323.077 L 246.154 276.923 261.538 276.923 L 276.923 276.923 276.923 246.154 L 276.923 215.385 292.308 215.385 L 307.692 215.385 307.692 200.000 L 307.692 184.615 323.077 184.615 L 338.462 184.615 338.462 200.000 L 338.462 215.385 353.846 215.385 L 369.231 215.385 369.231 200.000 L 369.231 184.615 353.846 184.615 L 338.462 184.615 338.462 153.846 L 338.462 123.077 307.692 123.077 L 276.923 123.077 276.923 92.308 L 276.923 61.538 292.308 61.538 L 307.692 61.538 307.692 46.154 L 307.692 30.769 276.923 30.769 L 246.154 30.769 246.154 15.385 L 246.154 0.000 184.615 0.000 L 123.077 0.000 123.077 15.385 M215.385 46.154 L 215.385 61.538 230.769 61.538 L 246.154 61.538 246.154 92.308 L 246.154 123.077 261.538 123.077 L 276.923 123.077 276.923 153.846 L 276.923 184.615 261.538 184.615 L 246.154 184.615 246.154 215.385 L 246.154 246.154 230.769 246.154 L 215.385 246.154 215.385 215.385 L 215.385 184.615 200.000 184.615 L 184.615 184.615 184.615 200.000 L 184.615 215.385 153.846 215.385 L 123.077 215.385 123.077 200.000 L 123.077 184.615 92.308 184.615 L 61.538 184.615 61.538 153.846 L 61.538 123.077 76.923 123.077 L 92.308 123.077 92.308 107.692 L 92.308 92.308 107.692 92.308 L 123.077 92.308 123.077 76.923 L 123.077 61.538 138.462 61.538 L 153.846 61.538 153.846 46.154 L 153.846 30.769 184.615 30.769 L 215.385 30.769 215.385 46.154 M215.385 153.846 L 215.385 184.615 230.769 184.615 L 246.154 184.615 246.154 153.846 L 246.154 123.077 230.769 123.077 L 215.385 123.077 215.385 153.846 M215.385 338.462 L 215.385 369.231 200.000 369.231 L 184.615 369.231 184.615 338.462 L 184.615 307.692 200.000 307.692 L 215.385 307.692 215.385 338.462 " stroke="none" fill="#4c5c64" fill-rule="evenodd"></path></g></svg>