<svg id="svg" version="1.1" xmlns="http://www.w3.org/2000/svg" xmlns:xlink="http://www.w3.org/1999/xlink" width="400" height="400" viewBox="0, 0, 400,400"><g id="svgg"><path id="path0" d="M40.000 20.000 L 40.000 40.000 20.000 40.000 L 0.000 40.000 0.000 80.000 L 0.000 120.000 20.000 120.000 L 40.000 120.000 40.000 140.000 L 40.000 160.000 20.000 160.000 L 0.000 160.000 0.000 220.000 L 0.000 280.000 20.000 280.000 L 40.000 280.000 40.000 300.000 L 40.000 320.000 20.000 320.000 L 0.000 320.000 0.000 360.000 L 0.000 400.000 20.000 400.000 L 40.000 400.000 40.000 380.000 L 40.000 360.000 60.000 360.000 L 80.000 360.000 80.000 380.000 L 80.000 400.000 100.000 400.000 L 120.000 400.000 120.000 380.000 L 120.000 360.000 140.000 360.000 L 160.000 360.000 160.000 380.000 L 160.000 400.000 200.000 400.000 L 240.000 400.000 240.000 380.000 L 240.000 360.000 260.000 360.000 L 280.000 360.000 280.000 380.000 L 280.000 400.000 300.000 400.000 L 320.000 400.000 320.000 360.000 L 320.000 320.000 360.000 320.000 L 400.000 320.000 400.000 280.000 L 400.000 240.000 380.000 240.000 L 360.000 240.000 360.000 220.000 L 360.000 200.000 380.000 200.000 L 400.000 200.000 400.000 180.000 L 400.000 160.000 380.000 160.000 L 360.000 160.000 360.000 140.000 L 360.000 120.000 380.000 120.000 L 400.000 120.000 400.000 80.000 L 400.000 40.000 380.000 40.000 L 360.000 40.000 360.000 20.000 L 360.000 0.000 340.000 0.000 L 320.000 0.000 320.000 20.000 L 320.000 40.000 300.000 40.000 L 280.000 40.000 280.000 20.000 L 280.000 0.000 260.000 0.000 L 240.000 0.000 240.000 20.000 L 240.000 40.000 220.000 40.000 L 200.000 40.000 200.000 20.000 L 200.000 0.000 160.000 0.000 L 120.000 0.000 120.000 20.000 L 120.000 40.000 100.000 40.000 L 80.000 40.000 80.000 20.000 L 80.000 0.000 60.000 0.000 L 40.000 0.000 40.000 20.000 M80.000 60.000 L 80.000 80.000 100.000 80.000 L 120.000 80.000 120.000 60.000 L 120.000 40.000 140.000 40.000 L 160.000 40.000 160.000 60.000 L 160.000 80.000 140.000 80.000 L 120.000 80.000 120.000 100.000 L 120.000 120.000 140.000 120.000 L 160.000 120.000 160.000 140.000 L 160.000 160.000 140.000 160.000 L 120.000 160.000 120.000 140.000 L 120.000 120.000 100.000 120.000 L 80.000 120.000 80.000 100.000 L 80.000 80.000 60.000 80.000 L 40.000 80.000 40.000 60.000 L 40.000 40.000 60.000 40.000 L 80.000 40.000 80.000 60.000 M360.000 60.000 L 360.000 80.000 340.000 80.000 L 320.000 80.000 320.000 100.000 L 320.000 120.000 300.000 120.000 L 280.000 120.000 280.000 100.000 L 280.000 80.000 300.000 80.000 L 320.000 80.000 320.000 60.000 L 320.000 40.000 340.000 40.000 L 360.000 40.000 360.000 60.000 M240.000 100.000 L 240.000 120.000 220.000 120.000 L 200.000 120.000 200.000 100.000 L 200.000 80.000 220.000 80.000 L 240.000 80.000 240.000 100.000 M280.000 200.000 L 280.000 240.000 260.000 240.000 L 240.000 240.000 240.000 200.000 L 240.000 160.000 260.000 160.000 L 280.000 160.000 280.000 200.000 M120.000 220.000 L 120.000 240.000 100.000 240.000 L 80.000 240.000 80.000 260.000 L 80.000 280.000 60.000 280.000 L 40.000 280.000 40.000 260.000 L 40.000 240.000 60.000 240.000 L 80.000 240.000 80.000 220.000 L 80.000 200.000 100.000 200.000 L 120.000 200.000 120.000 220.000 M200.000 260.000 L 200.000 280.000 180.000 280.000 L 160.000 280.000 160.000 260.000 L 160.000 240.000 180.000 240.000 L 200.000 240.000 200.000 260.000 M320.000 300.000 L 320.000 320.000 300.000 320.000 L 280.000 320.000 280.000 300.000 L 280.000 280.000 300.000 280.000 L 320.000 280.000 320.000 300.000 M120.000 340.000 L 120.000 360.000 100.000 360.000 L 80.000 360.000 80.000 340.000 L 80.000 320.000 100.000 320.000 L 120.000 320.000 120.000 340.000 M240.000 340.000 L 240.000 360.000 220.000 360.000 L 200.000 360.000 200.000 340.000 L 200.000 320.000 220.000 320.000 L 240.000 320.000 240.000 340.000 M360.000 380.000 L 360.000 400.000 380.000 400.000 L 400.000 400.000 400.000 380.000 L 400.000 360.000 380.000 360.000 L 360.000 360.000 360.000 380.000 " stroke="none" fill="#443c0c" fill-rule="evenodd"></path><path id="path1" d="M0.000 20.000 L 0.000 40.000 20.000 40.000 L 40.000 40.000 40.000 60.000 L 40.000 80.000 60.000 80.000 L 80.000 80.000 80.000 60.000 L 80.000 40.000 100.000 40.000 L 120.000 40.000 120.000 60.000 L 120.000 80.000 140.000 80.000 L 160.000 80.000 160.000 60.000 L 160.000 40.000 140.000 40.000 L 120.000 40.000 120.000 20.000 L 120.000 0.000 100.000 0.000 L 80.000 0.000 80.000 20.000 L 80.000 40.000 60.000 40.000 L 40.000 40.000 40.000 20.000 L 40.000 0.000 20.000 0.000 L 0.000 0.000 0.000 20.000 M200.000 20.000 L 200.000 40.000 220.000 40.000 L 240.000 40.000 240.000 20.000 L 240.000 0.000 220.000 0.000 L 200.000 0.000 200.000 20.000 M280.000 20.000 L 280.000 40.000 300.000 40.000 L 320.000 40.000 320.000 60.000 L 320.000 80.000 300.000 80.000 L 280.000 80.000 280.000 100.000 L 280.000 120.000 300.000 120.000 L 320.000 120.000 320.000 100.000 L 320.000 80.000 340.000 80.000 L 360.000 80.000 360.000 60.000 L 360.000 40.000 340.000 40.000 L 320.000 40.000 320.000 20.000 L 320.000 0.000 300.000 0.000 L 280.000 0.000 280.000 20.000 M0.000 140.000 L 0.000 160.000 20.000 160.000 L 40.000 160.000 40.000 140.000 L 40.000 120.000 20.000 120.000 L 0.000 120.000 0.000 140.000 M120.000 140.000 L 120.000 160.000 140.000 160.000 L 160.000 160.000 160.000 140.000 L 160.000 120.000 140.000 120.000 L 120.000 120.000 120.000 140.000 M240.000 180.000 L 240.000 200.000 260.000 200.000 L 280.000 200.000 280.000 180.000 L 280.000 160.000 260.000 160.000 L 240.000 160.000 240.000 180.000 M80.000 220.000 L 80.000 240.000 100.000 240.000 L 120.000 240.000 120.000 220.000 L 120.000 200.000 100.000 200.000 L 80.000 200.000 80.000 220.000 M360.000 220.000 L 360.000 240.000 380.000 240.000 L 400.000 240.000 400.000 220.000 L 400.000 200.000 380.000 200.000 L 360.000 200.000 360.000 220.000 M160.000 260.000 L 160.000 280.000 180.000 280.000 L 200.000 280.000 200.000 260.000 L 200.000 240.000 180.000 240.000 L 160.000 240.000 160.000 260.000 M0.000 300.000 L 0.000 320.000 20.000 320.000 L 40.000 320.000 40.000 300.000 L 40.000 280.000 20.000 280.000 L 0.000 280.000 0.000 300.000 M280.000 300.000 L 280.000 320.000 300.000 320.000 L 320.000 320.000 320.000 300.000 L 320.000 280.000 300.000 280.000 L 280.000 280.000 280.000 300.000 M80.000 340.000 L 80.000 360.000 60.000 360.000 L 40.000 360.000 40.000 380.000 L 40.000 400.000 60.000 400.000 L 80.000 400.000 80.000 380.000 L 80.000 360.000 100.000 360.000 L 120.000 360.000 120.000 380.000 L 120.000 400.000 140.000 400.000 L 160.000 400.000 160.000 380.000 L 160.000 360.000 140.000 360.000 L 120.000 360.000 120.000 340.000 L 120.000 320.000 100.000 320.000 L 80.000 320.000 80.000 340.000 M360.000 340.000 L 360.000 360.000 340.000 360.000 L 320.000 360.000 320.000 380.000 L 320.000 400.000 340.000 400.000 L 360.000 400.000 360.000 380.000 L 360.000 360.000 380.000 360.000 L 400.000 360.000 400.000 340.000 L 400.000 320.000 380.000 320.000 L 360.000 320.000 360.000 340.000 M240.000 380.000 L 240.000 400.000 260.000 400.000 L 280.000 400.000 280.000 380.000 L 280.000 360.000 260.000 360.000 L 240.000 360.000 240.000 380.000 " stroke="none" fill="#24240c" fill-rule="evenodd"></path><path id="path2" d="M360.000 20.000 L 360.000 40.000 380.000 40.000 L 400.000 40.000 400.000 20.000 L 400.000 0.000 380.000 0.000 L 360.000 0.000 360.000 20.000 M80.000 100.000 L 80.000 120.000 100.000 120.000 L 120.000 120.000 120.000 100.000 L 120.000 80.000 100.000 80.000 L 80.000 80.000 80.000 100.000 M200.000 100.000 L 200.000 120.000 220.000 120.000 L 240.000 120.000 240.000 100.000 L 240.000 80.000 220.000 80.000 L 200.000 80.000 200.000 100.000 M360.000 140.000 L 360.000 160.000 380.000 160.000 L 400.000 160.000 400.000 140.000 L 400.000 120.000 380.000 120.000 L 360.000 120.000 360.000 140.000 M240.000 220.000 L 240.000 240.000 260.000 240.000 L 280.000 240.000 280.000 220.000 L 280.000 200.000 260.000 200.000 L 240.000 200.000 240.000 220.000 M40.000 260.000 L 40.000 280.000 60.000 280.000 L 80.000 280.000 80.000 260.000 L 80.000 240.000 60.000 240.000 L 40.000 240.000 40.000 260.000 M200.000 340.000 L 200.000 360.000 220.000 360.000 L 240.000 360.000 240.000 340.000 L 240.000 320.000 220.000 320.000 L 200.000 320.000 200.000 340.000 M320.000 340.000 L 320.000 360.000 340.000 360.000 L 360.000 360.000 360.000 340.000 L 360.000 320.000 340.000 320.000 L 320.000 320.000 320.000 340.000 " stroke="none" fill="#5c5424" fill-rule="evenodd"></path></g></svg>