<svg id="svg" version="1.1" xmlns="http://www.w3.org/2000/svg" xmlns:xlink="http://www.w3.org/1999/xlink" width="400" height="400" viewBox="0, 0, 400,400"><g id="svgg"><path id="path0" d="M200.400 299.916 C 200.400 314.568,200.280 319.560,199.920 319.920 C 199.551 320.289,185.680 320.400,139.920 320.400 L 80.400 320.400 80.400 339.920 C 80.400 354.569,80.280 359.560,79.920 359.920 C 79.553 360.287,70.080 360.400,39.720 360.400 L 0.000 360.400 0.000 380.200 L 0.000 400.000 59.996 400.000 L 119.993 400.000 120.096 380.100 L 120.200 360.200 200.104 360.099 L 280.008 359.998 279.904 340.299 L 279.800 320.600 260.000 320.400 L 240.200 320.200 240.000 300.400 L 239.800 280.600 220.100 280.496 L 200.400 280.392 200.400 299.916 M360.400 340.200 L 360.400 360.000 380.200 360.000 L 400.000 360.000 400.000 340.200 L 400.000 320.400 380.200 320.400 L 360.400 320.400 360.400 340.200 M280.000 380.200 L 280.000 400.000 320.000 400.000 L 360.000 400.000 360.000 380.200 L 360.000 360.400 320.000 360.400 L 280.000 360.400 280.000 380.200 " stroke="none" fill="#4d3e32" fill-rule="evenodd"></path><path id="path1" d="M200.187 280.500 C 200.084 280.775,199.955 289.730,199.900 300.400 L 199.800 319.800 140.000 320.000 L 80.200 320.200 80.000 340.000 L 79.800 359.800 39.800 360.003 L -0.200 360.206 39.620 360.303 C 70.167 360.377,79.552 360.288,79.920 359.920 C 80.280 359.560,80.400 354.569,80.400 339.920 L 80.400 320.400 139.920 320.400 C 185.680 320.400,199.551 320.289,199.920 319.920 C 200.280 319.560,200.400 314.567,200.400 299.913 L 200.400 280.385 220.162 280.493 C 231.031 280.552,239.840 280.465,239.738 280.300 C 239.392 279.740,200.398 279.937,200.187 280.500 M240.332 320.092 C 240.493 320.253,249.475 320.433,260.293 320.492 C 271.110 320.552,279.829 320.468,279.668 320.308 C 279.507 320.147,270.525 319.967,259.707 319.908 C 248.890 319.848,240.171 319.932,240.332 320.092 M360.187 320.500 C 360.084 320.775,359.955 329.730,359.900 340.400 L 359.800 359.800 240.400 359.898 C 174.730 359.952,120.775 360.082,120.500 360.186 C 120.109 360.334,120.000 364.705,120.000 380.187 L 120.000 400.000 200.000 400.000 L 280.000 400.000 280.000 380.200 L 280.000 360.400 320.000 360.400 L 360.000 360.400 360.000 380.200 L 360.000 400.000 380.000 400.000 L 400.000 400.000 400.000 380.000 L 400.000 360.000 380.200 360.000 L 360.400 360.000 360.400 340.204 L 360.400 320.407 380.300 320.300 L 400.200 320.192 380.287 320.096 C 364.653 320.021,360.335 320.107,360.187 320.500 " stroke="none" fill="#5c4933" fill-rule="evenodd"></path><path id="path2" d="M0.000 180.002 L 0.000 360.004 39.900 359.902 L 79.800 359.800 80.000 340.000 L 80.200 320.200 140.000 320.000 L 199.800 319.800 200.000 300.000 L 200.200 280.200 220.000 280.200 L 239.800 280.200 240.000 300.000 L 240.200 319.800 260.000 320.000 L 279.800 320.200 280.000 340.000 L 280.200 359.800 320.000 359.800 L 359.800 359.800 360.000 340.000 L 360.200 320.200 380.100 320.096 L 400.000 319.993 400.000 280.196 L 400.000 240.400 380.200 240.400 L 360.400 240.400 360.400 279.920 C 360.400 310.124,360.287 319.553,359.920 319.920 C 359.228 320.612,320.772 320.612,320.080 319.920 C 319.720 319.560,319.600 314.569,319.600 299.920 L 319.600 280.400 300.080 280.400 C 285.431 280.400,280.440 280.280,280.080 279.920 C 279.720 279.560,279.600 274.569,279.600 259.920 L 279.600 240.400 260.080 240.400 C 245.431 240.400,240.440 240.280,240.080 239.920 C 239.720 239.560,239.600 234.569,239.600 219.920 L 239.600 200.400 220.000 200.400 L 200.400 200.400 200.400 219.920 C 200.400 234.569,200.280 239.560,199.920 239.920 C 199.560 240.280,194.569 240.400,179.920 240.400 L 160.400 240.400 160.400 259.920 C 160.400 274.569,160.280 279.560,159.920 279.920 C 159.115 280.725,40.668 280.605,39.999 279.799 C 39.432 279.115,39.572 41.416,40.140 40.497 C 40.384 40.102,77.414 40.000,220.224 40.000 L 400.000 40.000 400.000 20.000 L 400.000 0.000 200.000 0.000 L 0.000 0.000 0.000 180.002 " stroke="none" fill="#1d7415" fill-rule="evenodd"></path><path id="path3" d="M40.140 40.497 C 39.572 41.416,39.432 279.115,39.999 279.799 C 40.668 280.605,159.115 280.725,159.920 279.920 C 160.280 279.560,160.400 274.569,160.400 259.920 L 160.400 240.400 179.920 240.400 C 194.569 240.400,199.560 240.280,199.920 239.920 C 200.280 239.560,200.400 234.569,200.400 219.920 L 200.400 200.400 220.000 200.400 L 239.600 200.400 239.600 219.920 C 239.600 234.569,239.720 239.560,240.080 239.920 C 240.440 240.280,245.431 240.400,260.080 240.400 L 279.600 240.400 279.600 259.920 C 279.600 274.569,279.720 279.560,280.080 279.920 C 280.440 280.280,285.431 280.400,300.080 280.400 L 319.600 280.400 319.600 299.920 C 319.600 314.569,319.720 319.560,320.080 319.920 C 320.772 320.612,359.228 320.612,359.920 319.920 C 360.287 319.553,360.400 310.124,360.400 279.920 L 360.400 240.400 380.200 240.400 C 393.133 240.400,400.000 240.261,400.000 240.000 C 400.000 239.379,360.703 239.457,360.080 240.080 C 359.713 240.447,359.600 249.876,359.600 280.080 L 359.600 319.600 340.004 319.600 L 320.407 319.600 320.304 299.700 L 320.200 279.800 300.304 279.696 L 280.407 279.593 280.304 259.696 L 280.200 239.800 260.304 239.696 L 240.407 239.593 240.304 219.696 L 240.200 199.800 220.446 199.696 C 206.191 199.621,200.539 199.718,200.146 200.045 C 199.698 200.416,199.600 204.025,199.600 220.049 L 199.600 239.600 180.080 239.600 C 165.431 239.600,160.440 239.720,160.080 240.080 C 159.720 240.440,159.600 245.431,159.600 260.080 L 159.600 279.600 99.999 279.600 L 40.398 279.600 40.499 179.900 L 40.600 80.200 60.200 80.200 L 79.800 80.200 80.000 100.000 L 80.200 119.800 100.096 119.904 L 119.993 120.007 120.096 100.104 L 120.200 80.200 140.000 80.200 L 159.800 80.200 160.000 100.000 L 160.200 119.800 180.096 119.904 L 199.993 120.007 200.096 100.104 L 200.200 80.200 220.000 80.200 L 239.800 80.200 240.000 100.000 L 240.200 119.800 260.096 119.904 L 279.993 120.007 280.096 100.104 L 280.200 80.200 300.000 80.200 L 319.800 80.200 320.000 100.000 L 320.200 119.800 340.096 119.904 L 359.993 120.007 360.096 100.104 L 360.200 80.200 380.100 80.096 L 400.000 79.993 400.000 59.996 L 400.000 40.000 220.224 40.000 C 77.414 40.000,40.384 40.102,40.140 40.497 " stroke="none" fill="#2c9c24" fill-rule="evenodd"></path><path id="path4" d="M40.670 80.263 C 40.522 80.412,40.400 125.323,40.400 180.067 L 40.400 279.600 100.000 279.600 L 159.600 279.600 159.600 260.080 C 159.600 245.431,159.720 240.440,160.080 240.080 C 160.440 239.720,165.431 239.600,180.080 239.600 L 199.600 239.600 199.600 220.049 C 199.600 204.025,199.698 200.416,200.146 200.045 C 200.539 199.718,206.191 199.621,220.446 199.696 L 240.200 199.800 240.304 219.696 L 240.407 239.593 260.304 239.696 L 280.200 239.800 280.304 259.696 L 280.407 279.593 300.304 279.696 L 320.200 279.800 320.304 299.700 L 320.407 319.600 340.004 319.600 L 359.600 319.600 359.600 280.080 C 359.600 249.876,359.713 240.447,360.080 240.080 C 360.440 239.720,365.476 239.600,380.280 239.600 L 400.000 239.600 400.000 159.796 L 400.000 79.993 380.100 80.096 L 360.200 80.200 360.096 100.104 L 359.993 120.007 340.096 119.904 L 320.200 119.800 320.000 100.000 L 319.800 80.200 300.000 80.200 L 280.200 80.200 280.096 100.104 L 279.993 120.007 260.096 119.904 L 240.200 119.800 240.000 100.000 L 239.800 80.200 220.000 80.200 L 200.200 80.200 200.096 100.104 L 199.993 120.007 180.096 119.904 L 160.200 119.800 160.000 100.000 L 159.800 80.200 140.000 80.200 L 120.200 80.200 120.096 100.104 L 119.993 120.007 100.096 119.904 L 80.200 119.800 80.000 100.000 L 79.800 80.200 60.370 80.096 C 49.684 80.039,40.819 80.114,40.670 80.263 " stroke="none" fill="#34bc2d" fill-rule="evenodd"></path></g></svg>