<svg id="svg" version="1.1" xmlns="http://www.w3.org/2000/svg" xmlns:xlink="http://www.w3.org/1999/xlink" width="400" height="400" viewBox="0, 0, 400,400"><g id="svgg"><path id="path0" d="M0.000 200.000 L 0.000 400.000 200.000 400.000 L 400.000 400.000 400.000 200.000 L 400.000 0.000 200.000 0.000 L 0.000 0.000 0.000 200.000 M119.904 60.102 L 120.007 80.004 80.104 79.902 L 40.200 79.800 40.096 60.400 C 40.039 49.730,40.078 40.774,40.184 40.498 C 40.337 40.099,48.530 40.017,80.088 40.098 L 119.800 40.200 119.904 60.102 M239.904 100.104 L 240.007 120.007 220.104 119.904 L 200.200 119.800 200.096 100.400 C 200.039 89.730,200.079 80.773,200.185 80.496 C 200.337 80.099,204.533 80.014,220.089 80.096 L 239.800 80.200 239.904 100.104 M199.904 180.102 L 200.007 200.004 160.104 199.902 L 120.200 199.800 120.096 180.400 C 120.039 169.730,120.078 160.774,120.184 160.498 C 120.337 160.099,128.530 160.017,160.088 160.098 L 199.800 160.200 199.904 180.102 M319.904 220.102 L 320.007 240.004 280.104 239.902 L 240.200 239.800 240.096 220.400 C 240.039 209.730,240.078 200.774,240.184 200.498 C 240.337 200.099,248.530 200.017,280.088 200.098 L 319.800 200.200 319.904 220.102 M159.904 300.104 L 160.007 320.007 140.104 319.904 L 120.200 319.800 120.096 300.400 C 120.039 289.730,120.079 280.773,120.185 280.496 C 120.337 280.099,124.533 280.014,140.089 280.096 L 159.800 280.200 159.904 300.104 M359.904 340.104 L 360.007 360.007 340.104 359.904 L 320.200 359.800 320.096 340.400 C 320.039 329.730,320.079 320.773,320.185 320.496 C 320.337 320.099,324.533 320.014,340.089 320.096 L 359.800 320.200 359.904 340.104 " stroke="none" fill="#5c4933" fill-rule="evenodd"></path><path id="path1" d="M40.184 40.498 C 40.078 40.774,40.039 49.730,40.096 60.400 L 40.200 79.800 80.104 79.902 L 120.007 80.004 119.904 60.102 L 119.800 40.200 80.088 40.098 C 48.530 40.017,40.337 40.099,40.184 40.498 M200.185 80.496 C 200.079 80.773,200.039 89.730,200.096 100.400 L 200.200 119.800 220.104 119.904 L 240.007 120.007 239.904 100.104 L 239.800 80.200 220.089 80.096 C 204.533 80.014,200.337 80.099,200.185 80.496 M120.184 160.498 C 120.078 160.774,120.039 169.730,120.096 180.400 L 120.200 199.800 160.104 199.902 L 200.007 200.004 199.904 180.102 L 199.800 160.200 160.088 160.098 C 128.530 160.017,120.337 160.099,120.184 160.498 M240.184 200.498 C 240.078 200.774,240.039 209.730,240.096 220.400 L 240.200 239.800 280.104 239.902 L 320.007 240.004 319.904 220.102 L 319.800 200.200 280.088 200.098 C 248.530 200.017,240.337 200.099,240.184 200.498 M120.185 280.496 C 120.079 280.773,120.039 289.730,120.096 300.400 L 120.200 319.800 140.104 319.904 L 160.007 320.007 159.904 300.104 L 159.800 280.200 140.089 280.096 C 124.533 280.014,120.337 280.099,120.185 280.496 M320.185 320.496 C 320.079 320.773,320.039 329.730,320.096 340.400 L 320.200 359.800 340.104 359.904 L 360.007 360.007 359.904 340.104 L 359.800 320.200 340.089 320.096 C 324.533 320.014,320.337 320.099,320.185 320.496 " stroke="none" fill="#4d3e32" fill-rule="evenodd"></path></g></svg>