<svg id="svg" version="1.1" xmlns="http://www.w3.org/2000/svg" xmlns:xlink="http://www.w3.org/1999/xlink" width="400" height="346.6666666666667" viewBox="0, 0, 400,346.6666666666667"><g id="svgg"><path id="path0" d="M320.000 40.000 L 320.000 53.333 333.333 53.333 L 346.667 53.333 346.667 106.667 L 346.667 160.000 333.333 160.000 L 320.000 160.000 320.000 173.333 L 320.000 186.667 306.667 186.667 L 293.333 186.667 293.333 200.000 L 293.333 213.333 280.000 213.333 L 266.667 213.333 266.667 226.667 L 266.667 240.000 253.333 240.000 L 240.000 240.000 240.000 253.333 L 240.000 266.667 226.667 266.667 L 213.333 266.667 213.333 280.000 L 213.333 293.333 200.000 293.333 L 186.667 293.333 186.667 306.667 L 186.667 320.000 200.000 320.000 L 213.333 320.000 213.333 306.667 L 213.333 293.333 226.667 293.333 L 240.000 293.333 240.000 280.000 L 240.000 266.667 253.333 266.667 L 266.667 266.667 266.667 253.333 L 266.667 240.000 280.000 240.000 L 293.333 240.000 293.333 226.667 L 293.333 213.333 306.667 213.333 L 320.000 213.333 320.000 200.000 L 320.000 186.667 333.333 186.667 L 346.667 186.667 346.667 173.333 L 346.667 160.000 360.000 160.000 L 373.333 160.000 373.333 106.667 L 373.333 53.333 360.000 53.333 L 346.667 53.333 346.667 40.000 L 346.667 26.667 333.333 26.667 L 320.000 26.667 320.000 40.000 " stroke="none" fill="#7c1414" fill-rule="evenodd"></path><path id="path1" d="M80.000 66.667 L 80.000 80.000 66.667 80.000 L 53.333 80.000 53.333 106.667 L 53.333 133.333 66.667 133.333 L 80.000 133.333 80.000 120.000 L 80.000 106.667 93.333 106.667 L 106.667 106.667 106.667 93.333 L 106.667 80.000 120.000 80.000 L 133.333 80.000 133.333 66.667 L 133.333 53.333 106.667 53.333 L 80.000 53.333 80.000 66.667 " stroke="none" fill="#fcfcfc" fill-rule="evenodd"></path><path id="path2" d="M53.333 13.333 L 53.333 26.667 40.000 26.667 L 26.667 26.667 26.667 40.000 L 26.667 53.333 13.333 53.333 L 0.000 53.333 0.000 106.667 L 0.000 160.000 13.333 160.000 L 26.667 160.000 26.667 173.333 L 26.667 186.667 40.000 186.667 L 53.333 186.667 53.333 200.000 L 53.333 213.333 66.667 213.333 L 80.000 213.333 80.000 226.667 L 80.000 240.000 93.333 240.000 L 106.667 240.000 106.667 253.333 L 106.667 266.667 120.000 266.667 L 133.333 266.667 133.333 280.000 L 133.333 293.333 146.667 293.333 L 160.000 293.333 160.000 306.667 L 160.000 320.000 173.333 320.000 L 186.667 320.000 186.667 333.333 L 186.667 346.667 200.000 346.667 L 213.333 346.667 213.333 333.333 L 213.333 320.000 226.667 320.000 L 240.000 320.000 240.000 306.667 L 240.000 293.333 253.333 293.333 L 266.667 293.333 266.667 280.000 L 266.667 266.667 280.000 266.667 L 293.333 266.667 293.333 253.333 L 293.333 240.000 306.667 240.000 L 320.000 240.000 320.000 226.667 L 320.000 213.333 333.333 213.333 L 346.667 213.333 346.667 200.000 L 346.667 186.667 360.000 186.667 L 373.333 186.667 373.333 173.333 L 373.333 160.000 386.667 160.000 L 400.000 160.000 400.000 106.667 L 400.000 53.333 386.667 53.333 L 373.333 53.333 373.333 40.000 L 373.333 26.667 360.000 26.667 L 346.667 26.667 346.667 13.333 L 346.667 0.000 293.333 0.000 L 240.000 0.000 240.000 13.333 L 240.000 26.667 226.667 26.667 L 213.333 26.667 213.333 40.000 L 213.333 53.333 200.000 53.333 L 186.667 53.333 186.667 40.000 L 186.667 26.667 173.333 26.667 L 160.000 26.667 160.000 13.333 L 160.000 0.000 106.667 0.000 L 53.333 0.000 53.333 13.333 M160.000 40.000 L 160.000 53.333 173.333 53.333 L 186.667 53.333 186.667 66.667 L 186.667 80.000 200.000 80.000 L 213.333 80.000 213.333 66.667 L 213.333 53.333 226.667 53.333 L 240.000 53.333 240.000 40.000 L 240.000 26.667 293.333 26.667 L 346.667 26.667 346.667 40.000 L 346.667 53.333 360.000 53.333 L 373.333 53.333 373.333 106.667 L 373.333 160.000 360.000 160.000 L 346.667 160.000 346.667 173.333 L 346.667 186.667 333.333 186.667 L 320.000 186.667 320.000 200.000 L 320.000 213.333 306.667 213.333 L 293.333 213.333 293.333 226.667 L 293.333 240.000 280.000 240.000 L 266.667 240.000 266.667 253.333 L 266.667 266.667 253.333 266.667 L 240.000 266.667 240.000 280.000 L 240.000 293.333 226.667 293.333 L 213.333 293.333 213.333 306.667 L 213.333 320.000 200.000 320.000 L 186.667 320.000 186.667 306.667 L 186.667 293.333 173.333 293.333 L 160.000 293.333 160.000 280.000 L 160.000 266.667 146.667 266.667 L 133.333 266.667 133.333 253.333 L 133.333 240.000 120.000 240.000 L 106.667 240.000 106.667 226.667 L 106.667 213.333 93.333 213.333 L 80.000 213.333 80.000 200.000 L 80.000 186.667 66.667 186.667 L 53.333 186.667 53.333 173.333 L 53.333 160.000 40.000 160.000 L 26.667 160.000 26.667 106.667 L 26.667 53.333 40.000 53.333 L 53.333 53.333 53.333 40.000 L 53.333 26.667 106.667 26.667 L 160.000 26.667 160.000 40.000 " stroke="none" fill="#040404" fill-rule="evenodd"></path><path id="path3" d="M53.333 40.000 L 53.333 53.333 40.000 53.333 L 26.667 53.333 26.667 106.667 L 26.667 160.000 40.000 160.000 L 53.333 160.000 53.333 173.333 L 53.333 186.667 66.667 186.667 L 80.000 186.667 80.000 200.000 L 80.000 213.333 93.333 213.333 L 106.667 213.333 106.667 226.667 L 106.667 240.000 120.000 240.000 L 133.333 240.000 133.333 253.333 L 133.333 266.667 146.667 266.667 L 160.000 266.667 160.000 280.000 L 160.000 293.333 186.667 293.333 L 213.333 293.333 213.333 280.000 L 213.333 266.667 226.667 266.667 L 240.000 266.667 240.000 253.333 L 240.000 240.000 253.333 240.000 L 266.667 240.000 266.667 226.667 L 266.667 213.333 280.000 213.333 L 293.333 213.333 293.333 200.000 L 293.333 186.667 306.667 186.667 L 320.000 186.667 320.000 173.333 L 320.000 160.000 333.333 160.000 L 346.667 160.000 346.667 106.667 L 346.667 53.333 333.333 53.333 L 320.000 53.333 320.000 40.000 L 320.000 26.667 280.000 26.667 L 240.000 26.667 240.000 40.000 L 240.000 53.333 226.667 53.333 L 213.333 53.333 213.333 66.667 L 213.333 80.000 200.000 80.000 L 186.667 80.000 186.667 66.667 L 186.667 53.333 173.333 53.333 L 160.000 53.333 160.000 40.000 L 160.000 26.667 106.667 26.667 L 53.333 26.667 53.333 40.000 M133.333 66.667 L 133.333 80.000 120.000 80.000 L 106.667 80.000 106.667 93.333 L 106.667 106.667 93.333 106.667 L 80.000 106.667 80.000 120.000 L 80.000 133.333 66.667 133.333 L 53.333 133.333 53.333 106.667 L 53.333 80.000 66.667 80.000 L 80.000 80.000 80.000 66.667 L 80.000 53.333 106.667 53.333 L 133.333 53.333 133.333 66.667 " stroke="none" fill="#d40404" fill-rule="evenodd"></path></g></svg>